<mxfile host="app.diagrams.net" agent="Mozilla/5.0 (Windows NT 10.0; Win64; x64) AppleWebKit/537.36 (KHTML, like Gecko) Chrome/137.0.0.0 Safari/537.36" version="27.1.6">
  <diagram id="C5RBs43oDa-KdzZeNtuy" name="Page-1">
    <mxGraphModel dx="1214" dy="624" grid="1" gridSize="10" guides="1" tooltips="1" connect="1" arrows="1" fold="1" page="1" pageScale="1" pageWidth="827" pageHeight="1169" math="0" shadow="0">
      <root>
        <mxCell id="WIyWlLk6GJQsqaUBKTNV-0" />
        <mxCell id="WIyWlLk6GJQsqaUBKTNV-1" parent="WIyWlLk6GJQsqaUBKTNV-0" />
        <mxCell id="UxECrODOyn8pYhQ9JEJc-0" value="Copmutador - TelÃ©fono" style="verticalAlign=top;align=center;spacingTop=8;spacingLeft=2;spacingRight=12;shape=cube;size=10;direction=south;fontStyle=4;html=1;rounded=0;shadow=0;comic=0;labelBackgroundColor=none;strokeWidth=1;fontFamily=Verdana;fontSize=12" parent="WIyWlLk6GJQsqaUBKTNV-1" vertex="1">
          <mxGeometry x="1020" y="430" width="260" height="180" as="geometry" />
        </mxCell>
        <mxCell id="UxECrODOyn8pYhQ9JEJc-1" value="Navegador" style="shape=component;align=left;spacingLeft=36;rounded=0;shadow=0;comic=0;labelBackgroundColor=none;strokeWidth=1;fontFamily=Verdana;fontSize=12;html=1;" parent="WIyWlLk6GJQsqaUBKTNV-1" vertex="1">
          <mxGeometry x="1090" y="490" width="120" height="60" as="geometry" />
        </mxCell>
        <mxCell id="UxECrODOyn8pYhQ9JEJc-2" style="rounded=0;html=1;labelBackgroundColor=none;startArrow=none;startFill=0;startSize=8;endArrow=open;endFill=0;endSize=16;fontFamily=Verdana;fontSize=12;dashed=1;entryX=0.367;entryY=1.011;entryDx=0;entryDy=0;entryPerimeter=0;" parent="WIyWlLk6GJQsqaUBKTNV-1" target="UxECrODOyn8pYhQ9JEJc-0" edge="1">
          <mxGeometry relative="1" as="geometry">
            <mxPoint x="820" y="420" as="sourcePoint" />
            <mxPoint x="1115" y="550" as="targetPoint" />
          </mxGeometry>
        </mxCell>
        <mxCell id="UxECrODOyn8pYhQ9JEJc-3" value="Usuario&lt;div&gt;&lt;br&gt;&lt;/div&gt;" style="shape=umlActor;verticalLabelPosition=bottom;verticalAlign=top;html=1;outlineConnect=0;" parent="WIyWlLk6GJQsqaUBKTNV-1" vertex="1">
          <mxGeometry x="780" y="380" width="30" height="60" as="geometry" />
        </mxCell>
        <mxCell id="UxECrODOyn8pYhQ9JEJc-6" value="Navegador" style="shape=component;align=left;spacingLeft=36;rounded=0;shadow=0;comic=0;labelBackgroundColor=none;strokeWidth=1;fontFamily=Verdana;fontSize=12;html=1;" parent="WIyWlLk6GJQsqaUBKTNV-1" vertex="1">
          <mxGeometry x="1210" y="770" width="120" height="60" as="geometry" />
        </mxCell>
        <mxCell id="UxECrODOyn8pYhQ9JEJc-5" value="Node 1" style="verticalAlign=top;align=center;spacingTop=8;spacingLeft=2;spacingRight=12;shape=cube;size=10;direction=south;fontStyle=4;html=1;rounded=0;shadow=0;comic=0;labelBackgroundColor=none;strokeWidth=1;fontFamily=Verdana;fontSize=12" parent="WIyWlLk6GJQsqaUBKTNV-1" vertex="1">
          <mxGeometry x="850" y="720" width="600" height="450" as="geometry" />
        </mxCell>
        <mxCell id="UxECrODOyn8pYhQ9JEJc-7" value="Interfaz base de datos" style="shape=component;align=left;spacingLeft=36;rounded=0;shadow=0;comic=0;labelBackgroundColor=none;strokeWidth=1;fontFamily=Verdana;fontSize=12;html=1;" parent="WIyWlLk6GJQsqaUBKTNV-1" vertex="1">
          <mxGeometry x="890" y="795" width="180" height="60" as="geometry" />
        </mxCell>
        <mxCell id="UxECrODOyn8pYhQ9JEJc-8" value="Login" style="shape=component;align=left;spacingLeft=36;rounded=0;shadow=0;comic=0;labelBackgroundColor=none;strokeWidth=1;fontFamily=Verdana;fontSize=12;html=1;" parent="WIyWlLk6GJQsqaUBKTNV-1" vertex="1">
          <mxGeometry x="990" y="960" width="120" height="60" as="geometry" />
        </mxCell>
        <mxCell id="UxECrODOyn8pYhQ9JEJc-9" value="Registrarse" style="shape=component;align=left;spacingLeft=36;rounded=0;shadow=0;comic=0;labelBackgroundColor=none;strokeWidth=1;fontFamily=Verdana;fontSize=12;html=1;" parent="WIyWlLk6GJQsqaUBKTNV-1" vertex="1">
          <mxGeometry x="860" y="960" width="120" height="60" as="geometry" />
        </mxCell>
        <mxCell id="UxECrODOyn8pYhQ9JEJc-10" value="Interfaz Transbank" style="shape=component;align=left;spacingLeft=36;rounded=0;shadow=0;comic=0;labelBackgroundColor=none;strokeWidth=1;fontFamily=Verdana;fontSize=12;html=1;" parent="WIyWlLk6GJQsqaUBKTNV-1" vertex="1">
          <mxGeometry x="1220" y="810" width="160" height="60" as="geometry" />
        </mxCell>
        <mxCell id="UxECrODOyn8pYhQ9JEJc-11" value="Navegador" style="shape=component;align=left;spacingLeft=36;rounded=0;shadow=0;comic=0;labelBackgroundColor=none;strokeWidth=1;fontFamily=Verdana;fontSize=12;html=1;" parent="WIyWlLk6GJQsqaUBKTNV-1" vertex="1">
          <mxGeometry x="910" y="1060" width="120" height="60" as="geometry" />
        </mxCell>
        <mxCell id="UxECrODOyn8pYhQ9JEJc-12" value="Boleta o factura" style="shape=component;align=left;spacingLeft=36;rounded=0;shadow=0;comic=0;labelBackgroundColor=none;strokeWidth=1;fontFamily=Verdana;fontSize=12;html=1;" parent="WIyWlLk6GJQsqaUBKTNV-1" vertex="1">
          <mxGeometry x="1220" y="1030" width="140" height="60" as="geometry" />
        </mxCell>
        <mxCell id="UxECrODOyn8pYhQ9JEJc-17" value="Sistema Transbank" style="verticalAlign=top;align=center;spacingTop=8;spacingLeft=2;spacingRight=12;shape=cube;size=10;direction=south;fontStyle=4;html=1;rounded=0;shadow=0;comic=0;labelBackgroundColor=none;strokeWidth=1;fontFamily=Verdana;fontSize=12" parent="WIyWlLk6GJQsqaUBKTNV-1" vertex="1">
          <mxGeometry x="1520" y="740" width="260" height="180" as="geometry" />
        </mxCell>
        <mxCell id="UxECrODOyn8pYhQ9JEJc-18" value="Servidor web Transbank" style="shape=component;align=left;spacingLeft=36;rounded=0;shadow=0;comic=0;labelBackgroundColor=none;strokeWidth=1;fontFamily=Verdana;fontSize=12;html=1;" parent="WIyWlLk6GJQsqaUBKTNV-1" vertex="1">
          <mxGeometry x="1555" y="810" width="190" height="60" as="geometry" />
        </mxCell>
        <mxCell id="UxECrODOyn8pYhQ9JEJc-19" style="rounded=0;html=1;labelBackgroundColor=none;startArrow=none;startFill=0;startSize=8;endArrow=open;endFill=0;endSize=16;fontFamily=Verdana;fontSize=12;dashed=1;exitX=1;exitY=0.5;exitDx=0;exitDy=0;" parent="WIyWlLk6GJQsqaUBKTNV-1" source="UxECrODOyn8pYhQ9JEJc-10" edge="1">
          <mxGeometry relative="1" as="geometry">
            <mxPoint x="1516" y="840" as="sourcePoint" />
            <mxPoint x="1520" y="841" as="targetPoint" />
          </mxGeometry>
        </mxCell>
        <mxCell id="UxECrODOyn8pYhQ9JEJc-20" value="Servidor Base de Datos" style="verticalAlign=top;align=center;spacingTop=8;spacingLeft=2;spacingRight=12;shape=cube;size=10;direction=south;fontStyle=4;html=1;rounded=0;shadow=0;comic=0;labelBackgroundColor=none;strokeWidth=1;fontFamily=Verdana;fontSize=12" parent="WIyWlLk6GJQsqaUBKTNV-1" vertex="1">
          <mxGeometry x="540" y="735" width="260" height="180" as="geometry" />
        </mxCell>
        <mxCell id="UxECrODOyn8pYhQ9JEJc-21" value="MySQL" style="shape=component;align=left;spacingLeft=36;rounded=0;shadow=0;comic=0;labelBackgroundColor=none;strokeWidth=1;fontFamily=Verdana;fontSize=12;html=1;" parent="WIyWlLk6GJQsqaUBKTNV-1" vertex="1">
          <mxGeometry x="600" y="795" width="120" height="60" as="geometry" />
        </mxCell>
        <mxCell id="UxECrODOyn8pYhQ9JEJc-22" style="rounded=0;html=1;labelBackgroundColor=none;startArrow=none;startFill=0;startSize=8;endArrow=open;endFill=0;endSize=16;fontFamily=Verdana;fontSize=12;dashed=1;entryX=1;entryY=0.5;entryDx=0;entryDy=0;exitX=0.093;exitY=0.483;exitDx=0;exitDy=0;exitPerimeter=0;" parent="WIyWlLk6GJQsqaUBKTNV-1" source="UxECrODOyn8pYhQ9JEJc-7" target="UxECrODOyn8pYhQ9JEJc-21" edge="1">
          <mxGeometry relative="1" as="geometry">
            <mxPoint x="1380" y="580" as="sourcePoint" />
            <mxPoint x="1586" y="611" as="targetPoint" />
          </mxGeometry>
        </mxCell>
        <mxCell id="UxECrODOyn8pYhQ9JEJc-23" value="Whatsapp" style="verticalAlign=top;align=center;spacingTop=8;spacingLeft=2;spacingRight=12;shape=cube;size=10;direction=south;fontStyle=4;html=1;rounded=0;shadow=0;comic=0;labelBackgroundColor=none;strokeWidth=1;fontFamily=Verdana;fontSize=12" parent="WIyWlLk6GJQsqaUBKTNV-1" vertex="1">
          <mxGeometry x="645" y="1260" width="260" height="180" as="geometry" />
        </mxCell>
        <mxCell id="UxECrODOyn8pYhQ9JEJc-24" value="Instagram" style="verticalAlign=top;align=center;spacingTop=8;spacingLeft=2;spacingRight=12;shape=cube;size=10;direction=south;fontStyle=4;html=1;rounded=0;shadow=0;comic=0;labelBackgroundColor=none;strokeWidth=1;fontFamily=Verdana;fontSize=12" parent="WIyWlLk6GJQsqaUBKTNV-1" vertex="1">
          <mxGeometry x="970" y="1260" width="260" height="180" as="geometry" />
        </mxCell>
        <mxCell id="UxECrODOyn8pYhQ9JEJc-25" value="Servidor web Whatsapp" style="shape=component;align=left;spacingLeft=36;rounded=0;shadow=0;comic=0;labelBackgroundColor=none;strokeWidth=1;fontFamily=Verdana;fontSize=12;html=1;" parent="WIyWlLk6GJQsqaUBKTNV-1" vertex="1">
          <mxGeometry x="670" y="1330" width="190" height="60" as="geometry" />
        </mxCell>
        <mxCell id="UxECrODOyn8pYhQ9JEJc-26" value="Servidor web Instagram" style="shape=component;align=left;spacingLeft=36;rounded=0;shadow=0;comic=0;labelBackgroundColor=none;strokeWidth=1;fontFamily=Verdana;fontSize=12;html=1;" parent="WIyWlLk6GJQsqaUBKTNV-1" vertex="1">
          <mxGeometry x="1000" y="1330" width="190" height="60" as="geometry" />
        </mxCell>
        <mxCell id="UxECrODOyn8pYhQ9JEJc-27" style="rounded=0;html=1;labelBackgroundColor=none;startArrow=none;startFill=0;startSize=8;endArrow=open;endFill=0;endSize=16;fontFamily=Verdana;fontSize=12;dashed=1;entryX=0.018;entryY=0.226;entryDx=0;entryDy=0;entryPerimeter=0;exitX=0.5;exitY=1;exitDx=0;exitDy=0;" parent="WIyWlLk6GJQsqaUBKTNV-1" source="UxECrODOyn8pYhQ9JEJc-11" target="UxECrODOyn8pYhQ9JEJc-23" edge="1">
          <mxGeometry relative="1" as="geometry">
            <mxPoint x="820" y="1210" as="sourcePoint" />
            <mxPoint x="1586" y="611" as="targetPoint" />
          </mxGeometry>
        </mxCell>
        <mxCell id="UxECrODOyn8pYhQ9JEJc-28" style="rounded=0;html=1;labelBackgroundColor=none;startArrow=none;startFill=0;startSize=8;endArrow=open;endFill=0;endSize=16;fontFamily=Verdana;fontSize=12;dashed=1;exitX=0.75;exitY=1;exitDx=0;exitDy=0;entryX=0;entryY=0.538;entryDx=0;entryDy=0;entryPerimeter=0;" parent="WIyWlLk6GJQsqaUBKTNV-1" source="UxECrODOyn8pYhQ9JEJc-11" target="UxECrODOyn8pYhQ9JEJc-24" edge="1">
          <mxGeometry relative="1" as="geometry">
            <mxPoint x="842" y="1271" as="sourcePoint" />
            <mxPoint x="1060" y="1240" as="targetPoint" />
          </mxGeometry>
        </mxCell>
        <mxCell id="UxECrODOyn8pYhQ9JEJc-29" value="" style="endArrow=open;startArrow=open;html=1;rounded=0;dashed=1;startFill=0;endFill=0;entryX=0.994;entryY=0.176;entryDx=0;entryDy=0;entryPerimeter=0;exitX=0;exitY=0.255;exitDx=0;exitDy=0;exitPerimeter=0;" parent="WIyWlLk6GJQsqaUBKTNV-1" source="UxECrODOyn8pYhQ9JEJc-5" target="UxECrODOyn8pYhQ9JEJc-0" edge="1">
          <mxGeometry width="50" height="50" relative="1" as="geometry">
            <mxPoint x="1110" y="710" as="sourcePoint" />
            <mxPoint x="1160" y="660" as="targetPoint" />
          </mxGeometry>
        </mxCell>
        <mxCell id="UxECrODOyn8pYhQ9JEJc-30" value="&lt;br&gt;&lt;div&gt;Controlador&lt;/div&gt;&lt;div&gt;&lt;br&gt;&lt;/div&gt;" style="shape=module;align=left;spacingLeft=20;align=center;verticalAlign=top;whiteSpace=wrap;html=1;" parent="WIyWlLk6GJQsqaUBKTNV-1" vertex="1">
          <mxGeometry x="930" y="880" width="100" height="50" as="geometry" />
        </mxCell>
        <mxCell id="UxECrODOyn8pYhQ9JEJc-35" value="" style="endArrow=open;startArrow=open;html=1;rounded=0;dashed=1;entryX=0.38;entryY=1;entryDx=0;entryDy=0;exitX=0.75;exitY=0;exitDx=0;exitDy=0;entryPerimeter=0;startFill=0;endFill=0;" parent="WIyWlLk6GJQsqaUBKTNV-1" source="UxECrODOyn8pYhQ9JEJc-9" target="UxECrODOyn8pYhQ9JEJc-30" edge="1">
          <mxGeometry width="50" height="50" relative="1" as="geometry">
            <mxPoint x="970" y="990" as="sourcePoint" />
            <mxPoint x="1020" y="940" as="targetPoint" />
          </mxGeometry>
        </mxCell>
        <mxCell id="UxECrODOyn8pYhQ9JEJc-36" value="" style="endArrow=open;startArrow=open;html=1;rounded=0;dashed=1;entryX=0.75;entryY=1;entryDx=0;entryDy=0;exitX=0.25;exitY=0;exitDx=0;exitDy=0;startFill=0;endFill=0;" parent="WIyWlLk6GJQsqaUBKTNV-1" source="UxECrODOyn8pYhQ9JEJc-8" target="UxECrODOyn8pYhQ9JEJc-30" edge="1">
          <mxGeometry width="50" height="50" relative="1" as="geometry">
            <mxPoint x="970" y="990" as="sourcePoint" />
            <mxPoint x="1020" y="940" as="targetPoint" />
          </mxGeometry>
        </mxCell>
        <mxCell id="UxECrODOyn8pYhQ9JEJc-37" value="" style="endArrow=open;startArrow=open;html=1;rounded=0;entryX=0.543;entryY=0.944;entryDx=0;entryDy=0;entryPerimeter=0;exitX=0.591;exitY=0.026;exitDx=0;exitDy=0;exitPerimeter=0;dashed=1;startFill=0;endFill=0;" parent="WIyWlLk6GJQsqaUBKTNV-1" source="UxECrODOyn8pYhQ9JEJc-30" target="UxECrODOyn8pYhQ9JEJc-7" edge="1">
          <mxGeometry width="50" height="50" relative="1" as="geometry">
            <mxPoint x="970" y="990" as="sourcePoint" />
            <mxPoint x="1020" y="940" as="targetPoint" />
          </mxGeometry>
        </mxCell>
      </root>
    </mxGraphModel>
  </diagram>
</mxfile>
